<mxfile host="app.diagrams.net" modified="2021-07-09T05:10:43.517Z" agent="5.0 (Windows NT 10.0; Win64; x64) AppleWebKit/537.36 (KHTML, like Gecko) Chrome/91.0.4472.114 Safari/537.36" etag="KQf4nyAQ9uCZ-k4nBj78" version="14.8.2" type="github">
  <diagram id="kgpKYQtTHZ0yAKxKKP6v" name="Page-1">
    <mxGraphModel dx="2062" dy="1122" grid="1" gridSize="10" guides="1" tooltips="1" connect="1" arrows="1" fold="1" page="1" pageScale="1" pageWidth="850" pageHeight="1100" math="0" shadow="0">
      <root>
        <mxCell id="0" />
        <mxCell id="1" parent="0" />
        <mxCell id="AqlT76Oq7zfoqeTl97pu-7" value="7. 更新结算单状态&lt;br&gt;提交待审核" style="edgeStyle=orthogonalEdgeStyle;html=1;align=center;endArrow=block;rounded=0;shadow=0;fontSize=15;fontColor=#0066CC;fontStyle=1;verticalAlign=bottom;strokeColor=#0000FF;strokeWidth=1.5;spacing=2;sketch=0;" edge="1" parent="1">
          <mxGeometry x="-0.12" y="46" relative="1" as="geometry">
            <mxPoint x="634" y="590" as="sourcePoint" />
            <Array as="points">
              <mxPoint x="744" y="590" />
              <mxPoint x="744" y="620" />
              <mxPoint x="634" y="620" />
            </Array>
            <mxPoint x="634" y="620" as="targetPoint" />
            <mxPoint y="-5" as="offset" />
          </mxGeometry>
        </mxCell>
        <mxCell id="3nuBFxr9cyL0pnOWT2aG-1" value="国际物流" style="shape=umlLifeline;perimeter=lifelinePerimeter;container=1;collapsible=0;recursiveResize=0;rounded=0;shadow=0;strokeWidth=2;fillColor=#fff2cc;fontSize=14;strokeColor=#CC0000;" parent="1" vertex="1">
          <mxGeometry x="120" y="80" width="100" height="1520" as="geometry" />
        </mxCell>
        <mxCell id="3nuBFxr9cyL0pnOWT2aG-5" value="金蟾应付结算" style="shape=umlLifeline;perimeter=lifelinePerimeter;container=1;collapsible=0;recursiveResize=0;rounded=0;shadow=0;strokeWidth=2;fontSize=14;strokeColor=#CC0000;fillColor=#fff2cc;" parent="1" vertex="1">
          <mxGeometry x="580" y="80" width="100" height="1530" as="geometry" />
        </mxCell>
        <mxCell id="3nuBFxr9cyL0pnOWT2aG-6" value="" style="points=[];perimeter=orthogonalPerimeter;rounded=0;shadow=0;strokeWidth=1.5;fontSize=14;strokeColor=#CC0000;" parent="3nuBFxr9cyL0pnOWT2aG-5" vertex="1">
          <mxGeometry x="45" y="80" width="10" height="50" as="geometry" />
        </mxCell>
        <mxCell id="AqlT76Oq7zfoqeTl97pu-4" value="" style="points=[];perimeter=orthogonalPerimeter;rounded=0;shadow=0;strokeWidth=1.5;fontSize=14;strokeColor=#CC0000;" vertex="1" parent="3nuBFxr9cyL0pnOWT2aG-5">
          <mxGeometry x="45" y="243" width="10" height="57" as="geometry" />
        </mxCell>
        <mxCell id="AqlT76Oq7zfoqeTl97pu-15" value="" style="points=[];perimeter=orthogonalPerimeter;rounded=0;shadow=0;strokeWidth=1.5;fontSize=14;strokeColor=#CC0000;" vertex="1" parent="3nuBFxr9cyL0pnOWT2aG-5">
          <mxGeometry x="45" y="420" width="10" height="1050" as="geometry" />
        </mxCell>
        <mxCell id="3nuBFxr9cyL0pnOWT2aG-9" value="2. 返回服务单号" style="verticalAlign=bottom;endArrow=block;entryX=0.8;entryY=0.975;strokeWidth=2;fontSize=15;strokeColor=#0000FF;jumpSize=6;shadow=0;spacing=2;fontStyle=1;fontColor=#0066CC;entryDx=0;entryDy=0;entryPerimeter=0;dashed=1;" parent="1" edge="1">
          <mxGeometry x="-0.0127" y="30" relative="1" as="geometry">
            <mxPoint x="620" y="198" as="sourcePoint" />
            <mxPoint x="173" y="198" as="targetPoint" />
            <mxPoint as="offset" />
          </mxGeometry>
        </mxCell>
        <mxCell id="4_ED9oMnIv8WOw3gXW3d-1" value="Text" style="text;html=1;align=center;verticalAlign=middle;resizable=0;points=[];autosize=1;strokeColor=none;fontSize=14;fontColor=#FFFFFF;" parent="1" vertex="1">
          <mxGeometry x="280" y="130" width="40" height="20" as="geometry" />
        </mxCell>
        <mxCell id="4_ED9oMnIv8WOw3gXW3d-9" value="&lt;font color=&quot;#ff0000&quot;&gt;&lt;font size=&quot;1&quot;&gt;&lt;b style=&quot;font-size: 15px&quot;&gt;1. 调用获取服务单号&lt;/b&gt;&lt;/font&gt;&lt;br&gt;&lt;/font&gt;" style="html=1;verticalAlign=bottom;endArrow=block;fontSize=14;fontColor=#FFFFFF;strokeWidth=2;strokeColor=#FF0000;exitX=0.5;exitY=0.163;exitDx=0;exitDy=0;exitPerimeter=0;" parent="1" edge="1" source="AqlT76Oq7zfoqeTl97pu-10">
          <mxGeometry x="0.0025" y="10" width="80" relative="1" as="geometry">
            <mxPoint x="177" y="163" as="sourcePoint" />
            <mxPoint x="623" y="169" as="targetPoint" />
            <mxPoint as="offset" />
          </mxGeometry>
        </mxCell>
        <mxCell id="AqlT76Oq7zfoqeTl97pu-1" value="审批平台" style="shape=umlLifeline;perimeter=lifelinePerimeter;container=1;collapsible=0;recursiveResize=0;rounded=0;shadow=0;strokeWidth=2;fontSize=14;strokeColor=#CC0000;fillColor=#fff2cc;" vertex="1" parent="1">
          <mxGeometry x="1146" y="80" width="100" height="1510" as="geometry" />
        </mxCell>
        <mxCell id="AqlT76Oq7zfoqeTl97pu-2" value="" style="points=[];perimeter=orthogonalPerimeter;rounded=0;shadow=0;strokeWidth=1.5;fontSize=14;strokeColor=#CC0000;" vertex="1" parent="AqlT76Oq7zfoqeTl97pu-1">
          <mxGeometry x="45" y="751" width="10" height="99" as="geometry" />
        </mxCell>
        <mxCell id="AqlT76Oq7zfoqeTl97pu-3" value="&lt;font color=&quot;#ff0000&quot;&gt;&lt;font size=&quot;1&quot;&gt;&lt;b style=&quot;font-size: 15px ; line-height: 120%&quot;&gt;3. 调用发票录入服务&lt;/b&gt;&lt;/font&gt;&lt;br&gt;&lt;/font&gt;" style="html=1;verticalAlign=bottom;endArrow=block;fontSize=14;fontColor=#FFFFFF;strokeWidth=2;strokeColor=#FF0000;exitX=0.9;exitY=0.075;exitDx=0;exitDy=0;exitPerimeter=0;" edge="1" parent="1">
          <mxGeometry x="-0.0122" y="11" width="80" relative="1" as="geometry">
            <mxPoint x="174" y="335" as="sourcePoint" />
            <mxPoint x="624" y="334" as="targetPoint" />
            <mxPoint as="offset" />
          </mxGeometry>
        </mxCell>
        <mxCell id="AqlT76Oq7zfoqeTl97pu-9" value="4. 返回发票录入结果" style="verticalAlign=bottom;endArrow=block;entryX=1.4;entryY=0.88;strokeWidth=2;fontSize=15;strokeColor=#0000FF;jumpSize=6;shadow=0;spacing=2;fontStyle=1;fontColor=#0066CC;entryDx=0;entryDy=0;entryPerimeter=0;dashed=1;" edge="1" parent="1" target="AqlT76Oq7zfoqeTl97pu-11">
          <mxGeometry x="-0.0127" y="30" relative="1" as="geometry">
            <mxPoint x="620" y="373" as="sourcePoint" />
            <mxPoint x="170" y="373" as="targetPoint" />
            <mxPoint as="offset" />
          </mxGeometry>
        </mxCell>
        <mxCell id="AqlT76Oq7zfoqeTl97pu-10" value="" style="points=[];perimeter=orthogonalPerimeter;rounded=0;shadow=0;strokeWidth=1.5;fontSize=14;strokeColor=#CC0000;" vertex="1" parent="1">
          <mxGeometry x="163" y="161" width="10" height="49" as="geometry" />
        </mxCell>
        <mxCell id="AqlT76Oq7zfoqeTl97pu-11" value="" style="points=[];perimeter=orthogonalPerimeter;rounded=0;shadow=0;strokeWidth=1.5;fontSize=14;strokeColor=#CC0000;" vertex="1" parent="1">
          <mxGeometry x="165" y="330" width="10" height="50" as="geometry" />
        </mxCell>
        <mxCell id="AqlT76Oq7zfoqeTl97pu-12" value="&lt;font color=&quot;#ff0000&quot;&gt;&lt;font size=&quot;1&quot;&gt;&lt;b style=&quot;font-size: 15px ; line-height: 120%&quot;&gt;5. 调用结算单录入服务&lt;/b&gt;&lt;/font&gt;&lt;br&gt;&lt;/font&gt;" style="html=1;verticalAlign=bottom;endArrow=block;fontSize=14;fontColor=#FFFFFF;strokeWidth=2;strokeColor=#FF0000;" edge="1" parent="1">
          <mxGeometry x="-0.0122" y="11" width="80" relative="1" as="geometry">
            <mxPoint x="170" y="510" as="sourcePoint" />
            <mxPoint x="620" y="510" as="targetPoint" />
            <mxPoint as="offset" />
          </mxGeometry>
        </mxCell>
        <mxCell id="AqlT76Oq7zfoqeTl97pu-13" value="6. 返回结算单录入结果" style="verticalAlign=bottom;endArrow=block;strokeWidth=2;fontSize=15;strokeColor=#0000FF;jumpSize=6;shadow=0;spacing=2;fontStyle=1;fontColor=#0066CC;dashed=1;" edge="1" parent="1">
          <mxGeometry x="-0.0127" y="30" relative="1" as="geometry">
            <mxPoint x="620" y="558" as="sourcePoint" />
            <mxPoint x="177" y="558" as="targetPoint" />
            <mxPoint as="offset" />
          </mxGeometry>
        </mxCell>
        <mxCell id="AqlT76Oq7zfoqeTl97pu-14" value="" style="points=[];perimeter=orthogonalPerimeter;rounded=0;shadow=0;strokeWidth=1.5;fontSize=14;strokeColor=#CC0000;" vertex="1" parent="1">
          <mxGeometry x="165" y="500" width="10" height="60" as="geometry" />
        </mxCell>
        <mxCell id="AqlT76Oq7zfoqeTl97pu-16" value="8.1 有发票信息，&lt;br&gt;插入自动审批任务" style="edgeStyle=orthogonalEdgeStyle;html=1;align=center;endArrow=block;rounded=0;shadow=0;fontSize=15;fontColor=#0066CC;fontStyle=1;verticalAlign=bottom;strokeColor=#0000FF;strokeWidth=1.5;spacing=2;sketch=0;" edge="1" parent="1">
          <mxGeometry x="-0.12" y="46" relative="1" as="geometry">
            <mxPoint x="636" y="676" as="sourcePoint" />
            <Array as="points">
              <mxPoint x="746" y="676" />
              <mxPoint x="746" y="706" />
              <mxPoint x="636" y="706" />
            </Array>
            <mxPoint x="636" y="706" as="targetPoint" />
            <mxPoint y="-5" as="offset" />
          </mxGeometry>
        </mxCell>
        <mxCell id="AqlT76Oq7zfoqeTl97pu-17" value="8.2. 处理审批任务" style="edgeStyle=orthogonalEdgeStyle;html=1;align=center;endArrow=block;rounded=0;shadow=0;fontSize=15;fontColor=#0066CC;fontStyle=1;verticalAlign=bottom;strokeColor=#0000FF;strokeWidth=1.5;spacing=2;sketch=0;" edge="1" parent="1">
          <mxGeometry x="-0.12" y="46" relative="1" as="geometry">
            <mxPoint x="636" y="752" as="sourcePoint" />
            <Array as="points">
              <mxPoint x="746" y="752" />
              <mxPoint x="746" y="782" />
              <mxPoint x="636" y="782" />
            </Array>
            <mxPoint x="636" y="782" as="targetPoint" />
            <mxPoint y="-5" as="offset" />
          </mxGeometry>
        </mxCell>
        <mxCell id="AqlT76Oq7zfoqeTl97pu-18" value="&lt;font color=&quot;#ff0000&quot;&gt;&lt;font size=&quot;1&quot;&gt;&lt;b style=&quot;font-size: 15px ; line-height: 120%&quot;&gt;10.&amp;nbsp;提交审批&lt;/b&gt;&lt;/font&gt;&lt;br&gt;&lt;/font&gt;" style="html=1;verticalAlign=bottom;endArrow=block;fontSize=14;fontColor=#FFFFFF;strokeWidth=2;strokeColor=#FF0000;entryX=0.47;entryY=0.752;entryDx=0;entryDy=0;entryPerimeter=0;rounded=0;" edge="1" parent="1">
          <mxGeometry x="-0.0122" y="11" width="80" relative="1" as="geometry">
            <mxPoint x="640" y="840" as="sourcePoint" />
            <mxPoint x="1190" y="839.52" as="targetPoint" />
            <mxPoint as="offset" />
          </mxGeometry>
        </mxCell>
        <mxCell id="AqlT76Oq7zfoqeTl97pu-20" style="edgeStyle=orthogonalEdgeStyle;rounded=0;jumpSize=4;orthogonalLoop=1;jettySize=auto;html=1;exitX=0;exitY=0.3333333333333333;exitDx=0;exitDy=0;exitPerimeter=0;entryX=0.53;entryY=0.803;entryDx=0;entryDy=0;entryPerimeter=0;strokeWidth=1.5;fontSize=15;fontColor=#0066CC;verticalAlign=bottom;strokeColor=#0000FF;endArrow=block;shadow=0;fontStyle=1;spacing=2;sketch=0;" edge="1" parent="1" source="AqlT76Oq7zfoqeTl97pu-19">
          <mxGeometry relative="1" as="geometry">
            <mxPoint x="1199" y="877.0300000000002" as="targetPoint" />
          </mxGeometry>
        </mxCell>
        <mxCell id="AqlT76Oq7zfoqeTl97pu-19" value="Actor" style="shape=umlActor;verticalLabelPosition=bottom;verticalAlign=bottom;html=1;rounded=1;fontSize=14;fontColor=#FFFFFF;strokeColor=#FF0000;strokeWidth=2;labelBackgroundColor=#ffffff;endArrow=block;" vertex="1" parent="1">
          <mxGeometry x="1271" y="857" width="30" height="60" as="geometry" />
        </mxCell>
        <mxCell id="AqlT76Oq7zfoqeTl97pu-21" value="11. 通知审批结果" style="verticalAlign=bottom;endArrow=block;strokeWidth=2;fontSize=15;strokeColor=#0000FF;jumpSize=6;shadow=0;spacing=2;fontStyle=1;fontColor=#0066CC;dashed=1;exitX=-0.1;exitY=0.949;exitDx=0;exitDy=0;exitPerimeter=0;" edge="1" parent="1" source="AqlT76Oq7zfoqeTl97pu-2">
          <mxGeometry x="-0.0127" y="30" relative="1" as="geometry">
            <mxPoint x="1190" y="942.027" as="sourcePoint" />
            <mxPoint x="640" y="924" as="targetPoint" />
            <mxPoint as="offset" />
          </mxGeometry>
        </mxCell>
        <mxCell id="AqlT76Oq7zfoqeTl97pu-22" value="物财平台" style="shape=umlLifeline;perimeter=lifelinePerimeter;container=1;collapsible=0;recursiveResize=0;rounded=0;shadow=0;strokeWidth=2;fontSize=14;strokeColor=#CC0000;fillColor=#fff2cc;" vertex="1" parent="1">
          <mxGeometry x="1780" y="80" width="100" height="1360" as="geometry" />
        </mxCell>
        <mxCell id="AqlT76Oq7zfoqeTl97pu-39" value="" style="text;strokeColor=none;fillColor=none;align=left;verticalAlign=middle;spacingTop=-1;spacingLeft=4;spacingRight=4;rotatable=0;labelPosition=right;points=[];portConstraint=eastwest;rounded=0;shadow=0;glass=0;sketch=1;" vertex="1" parent="1">
          <mxGeometry x="1130" y="720" width="20" height="14" as="geometry" />
        </mxCell>
        <mxCell id="AqlT76Oq7zfoqeTl97pu-40" value="" style="text;strokeColor=none;fillColor=none;align=left;verticalAlign=middle;spacingTop=-1;spacingLeft=4;spacingRight=4;rotatable=0;labelPosition=right;points=[];portConstraint=eastwest;rounded=0;shadow=0;glass=0;sketch=1;" vertex="1" parent="1">
          <mxGeometry x="1130" y="720" width="20" height="14" as="geometry" />
        </mxCell>
        <mxCell id="AqlT76Oq7zfoqeTl97pu-41" value="" style="text;strokeColor=none;fillColor=none;align=left;verticalAlign=middle;spacingTop=-1;spacingLeft=4;spacingRight=4;rotatable=0;labelPosition=right;points=[];portConstraint=eastwest;rounded=0;shadow=0;glass=0;sketch=1;" vertex="1" parent="1">
          <mxGeometry x="1130" y="720" width="20" height="14" as="geometry" />
        </mxCell>
        <mxCell id="AqlT76Oq7zfoqeTl97pu-42" value="" style="text;strokeColor=none;fillColor=none;align=left;verticalAlign=middle;spacingTop=-1;spacingLeft=4;spacingRight=4;rotatable=0;labelPosition=right;points=[];portConstraint=eastwest;rounded=0;shadow=0;glass=0;sketch=1;" vertex="1" parent="1">
          <mxGeometry x="1130" y="720" width="20" height="14" as="geometry" />
        </mxCell>
        <mxCell id="AqlT76Oq7zfoqeTl97pu-43" value="" style="text;strokeColor=none;fillColor=none;align=left;verticalAlign=middle;spacingTop=-1;spacingLeft=4;spacingRight=4;rotatable=0;labelPosition=right;points=[];portConstraint=eastwest;rounded=0;shadow=0;glass=0;sketch=1;" vertex="1" parent="1">
          <mxGeometry x="1130" y="720" width="20" height="14" as="geometry" />
        </mxCell>
        <mxCell id="AqlT76Oq7zfoqeTl97pu-46" value="金蟾应付结算" style="whiteSpace=wrap;html=1;rounded=0;shadow=0;fontSize=14;strokeColor=#CC0000;strokeWidth=2;fillColor=#fff2cc;" vertex="1" parent="1">
          <mxGeometry x="860" y="1660" width="120" height="40" as="geometry" />
        </mxCell>
        <mxCell id="AqlT76Oq7zfoqeTl97pu-48" value="12.1 通过，更新结算单和发票状态" style="edgeStyle=orthogonalEdgeStyle;html=1;align=center;endArrow=block;rounded=0;shadow=0;fontSize=15;fontColor=#0066CC;fontStyle=1;verticalAlign=bottom;strokeColor=#0000FF;strokeWidth=1.5;spacing=2;sketch=0;" edge="1" parent="1">
          <mxGeometry x="-0.12" y="46" relative="1" as="geometry">
            <mxPoint x="637" y="998" as="sourcePoint" />
            <Array as="points">
              <mxPoint x="747" y="998" />
              <mxPoint x="747" y="1028" />
              <mxPoint x="637" y="1028" />
            </Array>
            <mxPoint x="637" y="1028" as="targetPoint" />
            <mxPoint y="-5" as="offset" />
          </mxGeometry>
        </mxCell>
        <mxCell id="AqlT76Oq7zfoqeTl97pu-49" value="13. 结算单状态变更消息" style="verticalAlign=bottom;endArrow=block;strokeWidth=2;fontSize=15;strokeColor=#0000FF;jumpSize=6;shadow=0;spacing=2;fontStyle=1;fontColor=#0066CC;dashed=1;" edge="1" parent="1">
          <mxGeometry x="-0.0127" y="30" relative="1" as="geometry">
            <mxPoint x="620" y="1208" as="sourcePoint" />
            <mxPoint x="175" y="1208" as="targetPoint" />
            <mxPoint as="offset" />
          </mxGeometry>
        </mxCell>
        <mxCell id="AqlT76Oq7zfoqeTl97pu-50" value="&lt;font color=&quot;#ff0000&quot;&gt;12.2&amp;nbsp;业务驳回、财务驳回：结算单-&amp;gt;作废，发票-&amp;gt;逻辑删除&lt;/font&gt;" style="edgeStyle=orthogonalEdgeStyle;html=1;align=center;endArrow=block;rounded=0;shadow=0;fontSize=15;fontColor=#0066CC;fontStyle=1;verticalAlign=bottom;strokeWidth=1.5;spacing=2;sketch=0;strokeColor=#FF0000;" edge="1" parent="1">
          <mxGeometry x="-0.12" y="142" relative="1" as="geometry">
            <mxPoint x="638" y="1117" as="sourcePoint" />
            <Array as="points">
              <mxPoint x="748" y="1117" />
              <mxPoint x="748" y="1147" />
              <mxPoint x="638" y="1147" />
            </Array>
            <mxPoint x="638" y="1147" as="targetPoint" />
            <mxPoint y="-7" as="offset" />
          </mxGeometry>
        </mxCell>
        <mxCell id="AqlT76Oq7zfoqeTl97pu-54" value="&lt;span style=&quot;font-size: 14px&quot;&gt;出纳驳回&lt;/span&gt;" style="shape=note2;boundedLbl=1;whiteSpace=wrap;html=1;size=7;verticalAlign=top;align=center;rounded=0;shadow=0;glass=0;sketch=1;strokeWidth=1.5;fillColor=#ffe6cc;strokeColor=#d79b00;" vertex="1" parent="1">
          <mxGeometry x="580" y="1670" width="220" height="40" as="geometry" />
        </mxCell>
        <mxCell id="AqlT76Oq7zfoqeTl97pu-55" value="14. 出纳驳回" style="verticalAlign=bottom;endArrow=block;strokeWidth=1.5;fontSize=15;jumpSize=6;shadow=0;spacing=2;fontStyle=1;strokeColor=#FF0000;rounded=0;sketch=0;fontColor=#FF0000;" edge="1" parent="1" target="3nuBFxr9cyL0pnOWT2aG-5">
          <mxGeometry x="-0.4214" y="-27" relative="1" as="geometry">
            <mxPoint x="1826" y="1327" as="sourcePoint" />
            <mxPoint x="1210" y="1330" as="targetPoint" />
            <mxPoint as="offset" />
          </mxGeometry>
        </mxCell>
        <mxCell id="AqlT76Oq7zfoqeTl97pu-56" value="&lt;font color=&quot;#ff0000&quot;&gt;15. 出纳驳回：结算单-&amp;gt;作废，发票-&amp;gt;逻辑删除&lt;/font&gt;" style="edgeStyle=orthogonalEdgeStyle;html=1;align=center;endArrow=block;rounded=0;shadow=0;fontSize=15;fontColor=#0066CC;fontStyle=1;verticalAlign=bottom;strokeWidth=1.5;spacing=2;sketch=0;strokeColor=#FF0000;" edge="1" parent="1">
          <mxGeometry x="-0.12" y="142" relative="1" as="geometry">
            <mxPoint x="635" y="1393" as="sourcePoint" />
            <Array as="points">
              <mxPoint x="745" y="1393" />
              <mxPoint x="745" y="1423" />
              <mxPoint x="635" y="1423" />
            </Array>
            <mxPoint x="635" y="1423" as="targetPoint" />
            <mxPoint y="-7" as="offset" />
          </mxGeometry>
        </mxCell>
        <mxCell id="AqlT76Oq7zfoqeTl97pu-57" value="16. 结算单状态变更消息" style="verticalAlign=bottom;endArrow=block;strokeWidth=2;fontSize=15;strokeColor=#0000FF;jumpSize=6;shadow=0;spacing=2;fontStyle=1;fontColor=#0066CC;dashed=1;" edge="1" parent="1">
          <mxGeometry x="-0.0127" y="30" relative="1" as="geometry">
            <mxPoint x="620" y="1480" as="sourcePoint" />
            <mxPoint x="175" y="1480" as="targetPoint" />
            <mxPoint as="offset" />
          </mxGeometry>
        </mxCell>
      </root>
    </mxGraphModel>
  </diagram>
</mxfile>
